<svg t="1711163120918" class="icon" viewBox="0 0 1102 1024" version="1.1" xmlns="http://www.w3.org/2000/svg" p-id="949" width="200" height="200"><path d="M78.762064 236.322033a80.781605 80.781605 0 0 0-15.359882 1.507544 84.735352 84.735352 0 0 0-14.790998 4.494188 79.160284 79.160284 0 0 0-30.719765 22.783826 82.289149 82.289149 0 0 0-11.889687 19.825626A79.558503 79.558503 0 0 0 0 315.084098v511.996085a157.296575 157.296575 0 0 0 35.754393 99.953013 163.412084 163.412084 0 0 0 15.985656 16.782094 143.273571 143.273571 0 0 0 11.946575 9.813258 167.394276 167.394276 0 0 0 12.856791 8.590157 153.485049 153.485049 0 0 0 27.932231 13.198121 169.413816 169.413816 0 0 0 14.790998 4.494188 170.096477 170.096477 0 0 0 15.160773 3.015088 151.323287 151.323287 0 0 0 15.388326 1.507544c2.55998 0.142221 5.148405 0.19911 7.73683 0.19911h251.162524a65.13728 65.13728 0 0 1 23.637153 7.509276 67.981702 67.981702 0 0 1 19.256741 15.644325 59.675988 59.675988 0 0 0 18.77319 12.031908 58.822661 58.822661 0 0 0 21.902055 4.181301h118.384873a59.363102 59.363102 0 0 0 31.857534-9.301262c3.157309-2.01954 6.087065-4.323522 8.81771-6.911947a67.014599 67.014599 0 0 1 30.719765-20.508288c3.982192-1.27999 8.021272-2.161761 12.174129-2.645313h251.190969a149.047749 149.047749 0 0 0 15.445215-0.767994 151.437064 151.437064 0 0 0 30.293102-6.030176 145.662886 145.662886 0 0 0 14.563444-5.205294 159.657446 159.657446 0 0 0 33.564188-19.000744 164.208522 164.208522 0 0 0 17.550088-15.132328 152.631722 152.631722 0 0 0 15.132328-17.550088 168.475156 168.475156 0 0 0 12.401683-19.598073 156.869912 156.869912 0 0 0 17.834531-58.822661 154.253043 154.253043 0 0 0 0.767994-15.445215v-511.996085a78.278513 78.278513 0 0 0-13.283454-43.747222 82.289149 82.289149 0 0 0-9.784814-11.946575 77.595851 77.595851 0 0 0-18.574081-13.767006 79.501614 79.501614 0 0 0-37.119716-9.301262H78.762064z" fill="#004BBC" p-id="950"></path><path d="M157.609462 0.007395a78.591399 78.591399 0 0 0-65.478611 34.9864 76.088307 76.088307 0 0 0-7.281722 13.653229 82.118483 82.118483 0 0 0-4.494188 14.762553 80.781605 80.781605 0 0 0-1.507544 15.359883v708.943913a118.29954 118.29954 0 0 0 57.40045 101.34678 128.141242 128.141242 0 0 0 15.530548 7.822163 126.690587 126.690587 0 0 0 16.526096 5.461291 128.368796 128.368796 0 0 0 17.123425 2.9582 114.203571 114.203571 0 0 0 11.5768 0.568884h708.915468a119.693307 119.693307 0 0 0 34.303738-5.091516 120.31908 120.31908 0 0 0 31.345538-14.819442 114.857788 114.857788 0 0 0 21.902055-18.886967 133.346536 133.346536 0 0 0 7.367055-8.988376 144.155342 144.155342 0 0 0 6.428395-9.614149 125.325264 125.325264 0 0 0 9.898591-20.963395 95.174383 95.174383 0 0 0 3.356419-11.093248 112.923581 112.923581 0 0 0 3.413307-22.897603c0.085333-1.934207 0.142221-3.868415 0.142221-5.802622V78.797904a80.41183 80.41183 0 0 0-3.384863-22.869158 82.118483 82.118483 0 0 0-5.916399-14.250558 76.031419 76.031419 0 0 0-8.590157-12.856791 77.738072 77.738072 0 0 0-30.719765-22.783825A79.586947 79.586947 0 0 0 945.315439 0.007395h-157.552573a236.940411 236.940411 0 0 0-101.033895 22.698494 241.975039 241.975039 0 0 0-39.736585 23.807818 240.780381 240.780381 0 0 0-26.339354 22.698493 239.614168 239.614168 0 0 0-35.583728 45.62454 231.962671 231.962671 0 0 0-19.797182 41.869902 225.648052 225.648052 0 0 0-6.741281 22.186497 231.763561 231.763561 0 0 0-7.082613 57.428894 235.290645 235.290645 0 0 0-13.823894-79.615391 221.296086 221.296086 0 0 0-14.079893-31.772202 231.962671 231.962671 0 0 0-25.742025-38.513483 228.691585 228.691585 0 0 0-23.978483-25.201585 244.051467 244.051467 0 0 0-17.919863-14.705665 245.160792 245.160792 0 0 0-19.285186-12.885235 234.607984 234.607984 0 0 0-52.877818-23.438043A233.185773 233.185773 0 0 0 338.287191 1.145165a236.343082 236.343082 0 0 0-23.153601-1.13777H157.609462V0.007395z" fill="#CCE1FF" p-id="951"></path><path d="M551.419784 216.467963a29.837994 29.837994 0 0 1 26.225577 15.701213 30.520656 30.520656 0 0 1 3.49864 14.023004v303.386125a30.918875 30.918875 0 0 1-1.27999 8.647045 27.676233 27.676233 0 0 1-2.21865 5.375958c-0.483552 0.853327-0.967104 1.706654-1.507544 2.503092a30.065548 30.065548 0 0 1-21.816722 13.084345 30.008659 30.008659 0 0 1-16.924315-3.384863 26.168689 26.168689 0 0 1-7.025724-5.205294 30.321546 30.321546 0 0 1-7.423943-12.373238 31.487759 31.487759 0 0 1-1.279991-8.647045V246.19218a30.037104 30.037104 0 0 1 5.006184-16.526096 26.680685 26.680685 0 0 1 1.763542-2.332427 26.1118 26.1118 0 0 1 4.124413-4.124413 28.472671 28.472671 0 0 1 13.055901-6.172397 29.155333 29.155333 0 0 1 5.802622-0.568884z" fill="#EC532B" p-id="952"></path><path d="M324.833072 337.327483H198.370039a49.180068 49.180068 0 0 1-14.819442-2.275538 44.970323 44.970323 0 0 1-9.272818-3.811527 58.310665 58.310665 0 0 1-8.305715-5.575068 52.052935 52.052935 0 0 1-12.629236-15.445215 46.648532 46.648532 0 0 1-3.839971-9.244374 49.094736 49.094736 0 0 1-2.190206-14.847887 49.180068 49.180068 0 0 1 0.967104-9.983923 54.044031 54.044031 0 0 1 7.623053-18.403415 48.412074 48.412074 0 0 1 6.343063-7.765274 52.252045 52.252045 0 0 1 16.582984-11.121693 52.252045 52.252045 0 0 1 14.535-3.669305c1.678209-0.170665 3.327975-0.284442 5.006184-0.284442h126.491477a49.265401 49.265401 0 0 1 14.819442 2.275538 44.913434 44.913434 0 0 1 9.272818 3.839971 58.68044 58.68044 0 0 1 8.305715 5.575068 52.337378 52.337378 0 0 1 10.069256 11.150137 52.195156 52.195156 0 0 1 6.399951 13.539452 49.12318 49.12318 0 0 1 2.190205 14.847886 49.180068 49.180068 0 0 1-0.967103 9.95548 53.532035 53.532035 0 0 1-10.609697 22.442495 48.212965 48.212965 0 0 1-7.082612 7.111057 51.796937 51.796937 0 0 1-22.442495 10.695029 53.90181 53.90181 0 0 1-9.95548 0.995548h-0.028444z m0 232.446223H233.128884a49.180068 49.180068 0 0 1-9.983924-0.995548 48.554295 48.554295 0 0 1-9.614148-2.901311 50.175616 50.175616 0 0 1-12.885235-7.73683 56.689344 56.689344 0 0 1-3.726194-3.356419 56.831565 56.831565 0 0 1-6.371507-7.765274 49.66362 49.66362 0 0 1-4.721741-8.846154 52.394266 52.394266 0 0 1-3.640861-14.591889 49.180068 49.180068 0 0 1 0.73955-14.990107 48.611184 48.611184 0 0 1 2.901311-9.614149 49.777397 49.777397 0 0 1 7.736829-12.885235c1.052436-1.27999 2.190205-2.55998 3.356419-3.726194a56.689344 56.689344 0 0 1 7.765274-6.371507 50.175616 50.175616 0 0 1 28.444227-8.6186h91.704188a49.180068 49.180068 0 0 1 9.983924 0.995548 53.532035 53.532035 0 0 1 9.614148 2.901311 50.431614 50.431614 0 0 1 12.885235 7.736829c1.27999 1.052436 2.531536 2.161761 3.726194 3.356419a56.916898 56.916898 0 0 1 6.371507 7.765274 46.961419 46.961419 0 0 1 4.721741 8.817711 48.355186 48.355186 0 0 1 2.901311 9.642593 49.180068 49.180068 0 0 1 0 19.967847 47.075196 47.075196 0 0 1-5.063072 14.136781 49.86273 49.86273 0 0 1-20.991839 21.020283 50.431614 50.431614 0 0 1-24.149149 6.058621z" fill="#5D9CF9" p-id="953"></path></svg>